<?xml version="1.0" standalone="no"?>
<!DOCTYPE svg PUBLIC "-//W3C//DTD SVG 20010904//EN"
 "http://www.w3.org/TR/2001/REC-SVG-20010904/DTD/svg10.dtd">
<svg version="1.0" xmlns="http://www.w3.org/2000/svg"
 width="1123.000000pt" height="813.000000pt" viewBox="0 0 1123.000000 813.000000"
 preserveAspectRatio="xMidYMid meet">

<g transform="translate(0.000000,813.000000) scale(0.100000,-0.100000)"
fill="#FFFFFF" stroke="#000000">
<path d="M3144 7212 c-80 -11 -131 -54 -104 -87 18 -22 50 -19 50 4 0 26 81
35 196 21 214 -26 387 -104 515 -232 62 -62 88 -116 89 -183 0 -70 -32 -114
-110 -153 -68 -34 -159 -48 -245 -37 l-55 6 0 110 0 109 48 0 c52 0 147 -24
157 -40 3 -5 0 -18 -7 -29 -7 -11 -9 -23 -6 -27 13 -12 63 13 78 39 13 24 13
29 -6 54 -28 38 -76 60 -175 81 l-82 17 -12 50 c-6 28 -17 61 -24 74 -13 23
-14 24 -27 6 -7 -10 -16 -38 -20 -64 -8 -62 -26 -87 -71 -101 -84 -28 -173
-85 -173 -111 0 -18 109 -125 168 -166 33 -23 58 -48 62 -62 9 -40 33 -48 87
-28 33 12 78 17 144 17 284 0 436 169 330 367 -105 197 -387 352 -668 367 -49
2 -111 1 -139 -2z m241 -532 c0 -83 -1 -85 -23 -82 -13 2 -40 13 -60 25 -123
70 -132 102 -37 129 33 9 74 16 90 15 l30 -2 0 -85z"/>
<path d="M4050 7138 c-75 -46 -92 -78 -82 -157 5 -33 11 -63 14 -66 12 -12
147 16 197 42 44 22 60 38 79 76 l25 48 -24 25 c-32 34 -91 64 -127 64 -15 0
-52 -15 -82 -32z m30 -45 c0 -13 -53 -63 -67 -63 -20 0 -16 7 20 40 32 29 47
37 47 23z m147 -18 c12 -33 -79 -94 -141 -95 l-30 0 35 36 c62 66 123 92 136
59z"/>
<path d="M5897 7014 c-10 -11 3 -24 23 -24 33 0 40 -33 40 -200 0 -155 -1
-162 -23 -183 -13 -12 -32 -27 -43 -34 -15 -10 4 -12 104 -10 73 1 122 6 122
12 1 6 -10 12 -22 14 -13 1 -26 8 -30 15 -9 14 -10 311 -2 355 8 39 24 39 69
0 26 -23 35 -39 35 -63 0 -40 -33 -94 -65 -106 -14 -5 -25 -17 -25 -26 0 -21
38 -12 95 21 112 65 126 158 32 215 -28 17 -51 20 -168 20 -75 0 -139 -3 -142
-6z"/>
<path d="M6352 7014 c-17 -8 -5 -24 18 -24 33 0 40 -33 40 -200 0 -167 -7
-200 -40 -200 -33 0 -32 -19 2 -25 49 -9 203 -2 203 10 0 6 -12 11 -26 13 -36
4 -39 18 -39 202 0 181 3 198 36 202 14 2 26 8 27 13 2 10 -197 18 -221 9z"/>
<path d="M6687 7014 c-12 -13 -8 -19 22 -32 25 -11 149 -153 159 -183 8 -20
-135 -181 -182 -206 -40 -21 -18 -33 64 -33 63 0 110 15 83 27 -21 8 -15 34
26 106 l38 68 74 -82 c72 -80 161 -159 180 -159 21 0 3 33 -91 165 -55 77 -99
143 -98 147 10 26 128 143 157 156 32 13 34 16 16 23 -28 11 -137 11 -155 -1
-12 -8 -12 -10 3 -16 24 -9 21 -24 -16 -77 l-33 -46 -37 46 c-40 49 -47 73
-21 73 9 0 14 6 12 13 -5 13 -188 23 -201 11z"/>
<path d="M7367 7013 c-4 -3 1 -15 10 -25 15 -17 15 -22 -1 -76 -24 -77 -102
-266 -122 -297 -9 -14 -25 -25 -35 -25 -24 0 -33 -16 -13 -24 9 -3 54 -6 102
-6 l85 0 -21 23 c-25 26 -29 75 -11 126 13 36 33 44 105 39 l49 -3 23 -58 c25
-64 23 -92 -11 -101 -18 -5 -20 -8 -7 -16 16 -11 178 -14 204 -4 22 9 20 24
-3 24 -32 0 -55 41 -115 200 -60 160 -66 194 -39 204 15 6 15 8 3 16 -17 11
-193 14 -203 3z m107 -137 c9 -30 16 -57 16 -60 0 -3 -20 -6 -45 -6 -50 0 -51
2 -33 64 23 82 39 82 62 2z"/>
<path d="M7802 7013 c-19 -7 -4 -23 22 -23 32 0 36 -19 36 -197 0 -163 -8
-203 -39 -203 -29 0 -36 -18 -9 -25 37 -9 213 -1 212 10 0 6 -13 12 -30 15
-28 5 -29 7 -32 67 -3 61 9 103 29 103 5 0 54 -42 107 -93 107 -104 138 -127
165 -127 24 0 15 17 -80 148 l-74 102 36 45 c45 54 57 115 30 145 -9 10 -39
24 -66 29 -50 11 -283 14 -307 4z m245 -45 c18 -13 35 -35 38 -49 12 -54 -32
-109 -86 -109 -32 0 -39 15 -39 86 0 94 25 114 87 72z"/>
<path d="M4694 6907 c-3 -9 2 -51 11 -94 9 -43 15 -94 13 -113 l-3 -35 -46 65
c-26 36 -57 74 -69 85 l-22 20 -18 -23 c-42 -51 -58 -227 -24 -262 24 -24 38
4 42 83 2 39 8 76 12 80 4 5 31 -25 60 -67 71 -102 104 -110 131 -29 25 77
-10 242 -62 289 -17 15 -19 15 -25 1z"/>
<path d="M4251 6856 c-73 -24 -129 -98 -91 -121 6 -4 58 -15 116 -26 57 -10
113 -23 124 -29 25 -13 16 -35 -19 -50 -37 -15 -173 -9 -179 8 -3 9 15 11 81
6 87 -7 112 1 80 27 -21 18 -118 18 -160 0 -61 -25 -48 -72 32 -111 88 -43
211 -8 235 66 22 65 -25 105 -146 124 -38 6 -80 13 -94 16 -42 9 -4 21 113 34
114 14 143 25 127 50 -13 21 -160 25 -219 6z"/>
<path d="M4918 6860 c-69 -12 -74 -18 -42 -51 l28 -29 -24 -42 c-16 -29 -25
-63 -28 -114 -4 -70 -4 -72 23 -90 24 -15 33 -16 73 -5 63 16 112 48 112 72 0
17 -8 19 -70 19 -56 0 -70 3 -70 15 0 28 38 55 78 55 20 0 43 4 51 9 23 15 5
41 -28 41 -39 0 -61 9 -61 26 0 14 17 20 89 28 58 6 66 17 41 49 -19 23 -28
27 -73 26 -29 -1 -73 -5 -99 -9z"/>
<path d="M5194 6828 c-39 -47 -51 -81 -63 -187 -7 -51 -21 -131 -31 -177 -26
-109 -26 -175 -2 -197 10 -10 23 -17 29 -17 6 0 23 48 37 106 36 143 45 158
101 174 54 15 135 83 159 134 29 61 17 144 -23 166 -33 17 -81 -10 -147 -84
-84 -94 -96 -87 -44 27 17 37 30 71 30 77 0 19 -18 10 -46 -22z m196 -87 c0
-45 -33 -92 -82 -117 -39 -20 -46 -11 -25 29 17 31 94 127 103 127 2 0 4 -18
4 -39z"/>
<path d="M4056 6841 c-23 -37 -31 -241 -11 -294 13 -33 43 -20 56 26 26 97
-11 323 -45 268z"/>
<path d="M5650 6775 c-17 -20 -5 -45 20 -45 11 0 23 7 26 15 6 15 -11 45 -26
45 -4 0 -13 -7 -20 -15z"/>
<path d="M821 5762 c-5 -10 -15 -49 -22 -87 -6 -38 -23 -103 -36 -144 -21 -64
-26 -102 -30 -237 -6 -198 0 -237 107 -699 84 -362 150 -678 150 -720 0 -27 8
-22 -175 -125 -168 -95 -353 -220 -416 -281 -40 -39 -49 -54 -49 -83 0 -44 23
-68 58 -60 56 12 144 37 342 99 280 86 314 95 322 87 4 -4 49 -152 98 -327 50
-176 118 -408 150 -515 33 -107 77 -260 99 -340 113 -421 322 -1117 363 -1212
11 -27 26 -48 33 -48 8 0 11 -8 8 -21 -3 -12 -2 -24 4 -28 5 -3 15 -25 22 -49
13 -45 37 -64 52 -41 15 23 11 42 -7 35 -15 -6 -15 -4 -3 10 10 12 14 43 12
106 0 48 0 88 2 88 11 0 56 -95 65 -136 6 -27 17 -65 25 -84 7 -19 17 -56 20
-82 3 -26 10 -50 15 -53 5 -3 6 11 3 31 -5 28 -2 39 10 46 21 11 22 28 2 28
-8 0 -16 13 -20 33 -18 107 -22 153 -15 161 13 13 32 -4 25 -23 -5 -14 -4 -14
11 1 15 15 16 23 6 55 -6 20 -9 39 -7 41 5 6 27 -47 54 -128 l21 -65 -5 58
c-3 32 -8 89 -11 128 -8 90 7 91 35 1 11 -37 32 -85 45 -107 l25 -40 1 62 c0
41 5 67 15 77 13 13 13 21 1 68 -15 60 -4 76 26 38 19 -23 19 -23 12 82 l-6
106 73 54 c41 30 142 103 225 161 626 444 872 766 1049 1378 144 498 139 705
-26 945 -134 195 -250 264 -524 309 -279 46 -568 27 -1029 -70 -188 -39 -230
-45 -245 -36 -6 4 -20 72 -31 152 -43 311 -84 509 -121 580 -10 21 -19 48 -19
60 0 18 -3 19 -14 9 -12 -9 -16 -5 -22 27 -9 50 -27 92 -62 145 -16 24 -36 64
-46 91 -10 26 -26 51 -35 57 -10 5 -23 26 -29 48 -29 96 -179 265 -294 332
-110 63 -266 92 -287 52z m1903 -1921 c123 -44 197 -109 250 -220 25 -56 30
-79 32 -151 3 -148 -16 -340 -46 -482 -75 -348 -182 -557 -415 -810 -65 -71
-122 -128 -127 -128 -5 0 -52 -43 -104 -95 -53 -52 -100 -95 -105 -95 -6 0
-17 16 -25 35 -16 39 -44 162 -37 168 2 2 -14 76 -36 163 -71 285 -161 742
-161 815 0 21 -5 50 -11 66 -16 41 -53 231 -89 456 -28 173 -31 201 -18 213
14 14 167 48 358 78 143 23 453 15 534 -13z m762 -527 c-4 -42 -17 -104 -30
-139 -23 -62 -74 -160 -81 -153 -9 9 57 242 80 286 14 26 25 55 25 64 0 10 3
18 6 18 4 0 4 -34 0 -76z m-216 -57 c0 -23 -7 -67 -16 -97 -8 -30 -18 -66 -21
-80 -5 -24 -5 -25 11 -5 15 20 15 19 16 -8 0 -15 -7 -44 -16 -65 -14 -32 -17
-35 -24 -17 -6 18 -8 17 -23 -12 -19 -37 -25 -82 -6 -50 5 9 15 17 21 17 12 0
11 -5 -31 -119 -17 -46 -41 -96 -54 -110 -45 -50 -147 -234 -147 -263 1 -20
28 19 70 102 45 87 69 123 70 100 0 -22 -77 -160 -108 -192 -14 -15 -33 -30
-43 -33 -10 -3 -30 -26 -46 -50 -33 -54 -49 -59 -28 -10 8 19 22 51 30 71 9
19 20 58 25 86 6 28 22 72 37 97 15 25 26 51 25 58 -3 13 40 119 112 280 25
56 57 143 71 194 41 146 75 194 75 106z m142 -249 c-7 -7 -12 -8 -12 -2 0 6 3
14 7 17 3 4 9 5 12 2 2 -3 -1 -11 -7 -17z m-79 -35 c-10 -92 -103 -341 -180
-478 -35 -63 -41 -44 -8 26 13 30 25 61 25 69 0 8 8 20 19 27 10 6 21 24 24
40 3 15 28 93 56 173 28 80 51 155 51 168 0 12 4 22 9 22 5 0 6 -21 4 -47z
m62 -112 c-3 -16 -13 -35 -21 -42 -11 -9 -14 -7 -14 13 0 24 28 73 37 64 3 -2
2 -18 -2 -35z m-145 -333 c0 -7 -12 -31 -26 -53 -24 -38 -25 -39 -19 -10 10
46 45 95 45 63z m-338 -80 c-17 -35 -45 -79 -62 -98 l-31 -35 32 60 c59 110
81 146 87 141 3 -3 -9 -34 -26 -68z m-48 -402 c-27 -25 -53 -45 -59 -45 -5 0
14 22 44 50 29 27 56 48 59 45 2 -3 -17 -26 -44 -50z m-444 -392 c-8 -8 -23
-20 -34 -26 -19 -10 -18 -8 3 16 26 27 53 37 31 10z m-614 -531 c-10 -10 -19
5 -10 18 6 11 8 11 12 0 2 -7 1 -15 -2 -18z m79 -85 c5 -18 3 -28 -4 -28 -6 0
-11 9 -11 19 0 11 -3 28 -6 38 -5 12 -4 15 4 8 6 -5 14 -22 17 -37z"/>
<path d="M1930 3755 c-2 -11 -3 -27 -4 -35 -1 -8 -12 -17 -25 -18 -24 -4 -24
-4 -18 -95 4 -51 17 -150 31 -222 13 -71 38 -227 55 -345 36 -245 38 -253 52
-227 6 9 16 17 23 17 11 0 11 11 0 64 -19 92 -54 408 -54 496 -1 72 -2 74 -15
45 -7 -16 -14 -28 -16 -25 -1 3 -7 86 -14 185 -7 99 -13 171 -15 160z"/>
<path d="M2011 3264 c0 -11 3 -14 6 -6 3 7 2 16 -1 19 -3 4 -6 -2 -5 -13z"/>
<path d="M5073 5359 c-261 -14 -681 -84 -826 -139 -31 -12 -74 -37 -94 -56
-20 -19 -69 -56 -107 -81 -39 -26 -75 -51 -81 -56 -6 -6 28 -6 95 -1 264 20
904 6 1159 -27 103 -13 152 -40 251 -139 104 -103 154 -183 180 -287 21 -85
52 -364 42 -374 -4 -4 -52 -10 -106 -13 -174 -12 -473 -75 -620 -130 -174 -66
-444 -228 -597 -359 -209 -179 -390 -441 -461 -667 -18 -60 -23 -97 -23 -190
0 -141 16 -183 102 -268 175 -174 477 -293 883 -349 30 -4 188 -7 350 -8 l294
0 13 -25 c7 -14 13 -61 13 -105 1 -44 5 -98 10 -120 23 -102 29 -135 35 -210
l6 -80 -20 25 c-25 31 -26 16 -5 -58 15 -51 18 -54 30 -37 13 17 14 14 15 -31
1 -27 4 -62 8 -79 6 -27 8 -24 14 25 4 30 8 143 9 250 3 246 8 332 18 305 4
-11 6 -63 4 -115 -3 -88 2 -138 12 -127 3 2 13 71 24 152 11 82 23 152 27 156
5 4 8 -56 9 -134 0 -78 4 -173 8 -210 6 -57 10 -66 22 -56 11 9 14 7 14 -11 0
-13 3 -20 6 -17 4 3 8 57 10 119 1 62 3 123 3 136 1 12 6 22 11 22 6 0 8 -11
4 -25 -4 -17 -1 -32 9 -43 12 -13 17 -49 21 -141 3 -68 7 -126 10 -128 2 -2 6
25 10 59 12 114 38 157 65 110 8 -13 11 -8 12 28 5 161 7 169 28 155 6 -3 11
-15 11 -27 0 -17 2 -18 15 -8 14 12 15 8 9 -31 -3 -24 -13 -54 -20 -66 -10
-16 -11 -29 -4 -47 5 -13 7 -40 5 -58 -11 -82 -12 -148 -4 -154 5 -3 9 -2 9 3
0 20 32 192 42 226 11 37 41 52 51 25 2 -7 2 8 -1 34 -6 57 6 158 19 158 5 0
9 -7 9 -16 0 -8 4 -13 9 -9 9 5 24 66 46 183 8 40 21 47 205 101 140 41 215
69 208 77 -3 2 -58 -12 -124 -31 -133 -39 -262 -66 -268 -56 -3 4 2 38 10 76
15 72 77 531 89 665 4 41 9 84 11 95 2 11 6 70 10 130 3 61 10 133 14 160 16
88 17 99 35 375 2 36 7 124 10 195 4 72 13 195 21 275 8 80 14 174 14 210 -1
186 -98 402 -252 563 -63 65 -199 160 -273 192 -145 62 -319 102 -479 110 -55
3 -119 7 -141 9 -22 1 -104 -1 -182 -5z m633 -1486 c7 -25 -1 -291 -10 -343
-8 -48 -16 -136 -21 -245 -10 -188 -25 -326 -46 -434 -12 -57 -22 -129 -23
-160 0 -31 -5 -63 -11 -71 -5 -8 -8 -46 -7 -85 l2 -70 -19 28 c-10 16 -21 25
-24 20 -3 -5 -6 -47 -6 -94 1 -46 0 -92 0 -103 -1 -17 -8 -18 -123 -12 -303
16 -459 39 -617 92 -194 64 -375 173 -413 247 -30 59 -35 164 -13 263 46 211
196 424 410 583 114 85 141 101 245 144 47 19 130 56 185 82 223 105 420 184
462 185 16 0 25 -7 29 -27z m160 -431 c-12 -12 -18 8 -10 35 l8 28 4 -28 c2
-16 1 -31 -2 -35z m-49 -269 c-3 -10 -5 -4 -5 12 0 17 2 24 5 18 2 -7 2 -21 0
-30z m-37 -555 c0 -15 -4 -29 -9 -32 -10 -7 -18 29 -13 63 3 19 6 21 13 10 5
-8 9 -26 9 -41z m388 -135 c-14 -49 -22 -26 -13 35 6 39 9 43 16 25 4 -12 3
-38 -3 -60z m-43 -373 c-3 -5 -13 -10 -21 -10 -8 0 -12 5 -9 10 3 6 13 10 21
10 8 0 12 -4 9 -10z m-135 -50 c0 -5 -7 -10 -15 -10 -8 0 -15 5 -15 10 0 6 7
10 15 10 8 0 15 -4 15 -10z"/>
<path d="M5561 2714 c0 -11 3 -14 6 -6 3 7 2 16 -1 19 -3 4 -6 -2 -5 -13z"/>
<path d="M8790 4824 c-91 -67 -211 -101 -635 -179 -515 -96 -592 -116 -803
-216 -162 -77 -225 -123 -363 -267 -218 -227 -298 -384 -330 -646 -24 -195 26
-473 124 -686 63 -137 204 -317 357 -456 191 -173 477 -344 755 -451 477 -184
799 -246 1185 -228 439 20 717 108 952 302 91 76 148 148 211 270 96 185 123
313 133 613 l7 195 -32 95 c-113 336 -532 861 -884 1106 -118 83 -212 177
-263 264 l-44 75 0 -92 c0 -177 19 -216 215 -443 266 -307 380 -502 445 -756
32 -124 45 -312 31 -456 -22 -233 -54 -327 -173 -509 -84 -128 -144 -189 -238
-242 -231 -128 -454 -175 -786 -164 -255 8 -451 57 -681 168 -286 139 -490
348 -626 639 -92 196 -111 291 -105 509 7 217 47 337 177 529 60 89 148 183
211 225 19 13 89 54 156 90 227 126 403 190 668 242 323 64 492 120 599 199
55 40 100 146 62 146 -11 0 -15 11 -16 38 0 20 -3 32 -5 25 -3 -7 -11 -10 -18
-7 -7 3 -18 -7 -26 -21 -21 -39 -30 -30 -30 30 0 51 -10 69 -25 45 -3 -5 -14
-10 -25 -10 -10 0 -20 -7 -24 -15 -6 -18 -36 -9 -36 11 0 19 -19 18 -43 -3
-20 -18 -20 -17 -14 20 7 46 -11 49 -63 11z m-1622 -786 c-14 -18 -47 -64 -73
-101 -26 -37 -50 -66 -53 -63 -10 11 126 196 145 196 3 0 -6 -15 -19 -32z
m2672 -1503 c-7 -9 -15 -13 -18 -10 -3 2 1 11 8 20 7 9 15 13 18 10 3 -2 -1
-11 -8 -20z m77 -132 c-7 -55 -45 -153 -59 -153 -6 0 -8 6 -5 13 2 6 17 51 33
100 15 48 30 87 32 87 3 0 2 -21 -1 -47z m-187 -116 c0 -2 -9 -12 -20 -22 -24
-21 -27 -14 -4 9 15 15 24 20 24 13z m100 -88 c-7 -11 -14 -19 -16 -16 -7 7 7
37 17 37 6 0 5 -9 -1 -21z m-120 -157 c0 -4 -24 -25 -52 -47 -85 -63 -87 -63
-24 -3 59 56 76 67 76 50z"/>
<path d="M8699 4159 c-155 -76 -363 -155 -484 -184 l-30 -8 43 -19 c172 -77
454 24 583 209 29 42 36 63 20 63 -4 0 -64 -27 -132 -61z"/>
<path d="M8971 4159 c-19 -55 -147 -261 -215 -345 -118 -147 -296 -300 -441
-380 -57 -31 -64 -39 -50 -47 50 -27 298 33 412 100 169 99 387 540 334 676
-14 36 -27 34 -40 -4z"/>
<path d="M9093 3972 c4 -48 20 -140 36 -205 54 -212 110 -279 288 -344 69 -25
93 -28 93 -14 0 5 -45 76 -99 158 -55 81 -136 218 -181 303 -85 163 -104 190
-128 190 -13 0 -14 -14 -9 -88z"/>
<path d="M6625 2420 c-3 -5 -2 -10 4 -10 5 0 13 5 16 10 3 6 2 10 -4 10 -5 0
-13 -4 -16 -10z"/>
<path d="M5682 1725 c0 -16 2 -22 5 -12 2 9 2 23 0 30 -3 6 -5 -1 -5 -18z"/>
<path d="M5782 1669 c2 -7 10 -15 17 -17 8 -3 12 1 9 9 -2 7 -10 15 -17 17 -8
3 -12 -1 -9 -9z"/>
<path d="M9852 1590 c-35 -4 -68 -12 -75 -19 -17 -17 -17 -897 0 -927 7 -12
27 -24 44 -28 54 -11 811 -7 851 5 70 19 69 12 66 522 l-3 452 -410 1 c-225 0
-438 -3 -473 -6z m658 -42 c22 -16 50 -23 102 -27 l73 -6 3 -94 c3 -112 -8
-136 -65 -145 -43 -6 -108 5 -108 19 0 5 23 16 50 23 68 19 75 27 75 82 0 55
-8 60 -97 60 l-53 0 0 -70 c0 -82 -15 -104 -78 -115 -62 -10 -65 -27 -66 -309
-1 -180 -4 -247 -14 -264 -34 -59 -37 -24 -37 369 0 349 2 387 18 417 15 28
23 32 57 32 22 0 41 -1 43 -2 8 -5 47 25 47 37 0 21 16 19 50 -7z m-293 -19
c13 -5 23 -13 23 -18 0 -13 -60 -20 -233 -24 -109 -3 -152 -1 -165 9 -28 21
-3 34 84 43 90 9 256 4 291 -10z m-22 -81 c35 -16 34 -55 -2 -69 -45 -18 -224
-22 -253 -7 -48 26 -34 67 26 78 62 12 201 11 229 -2z m-327 -20 c7 -7 12 -27
12 -45 0 -25 4 -33 18 -33 97 -2 263 -14 288 -21 53 -16 63 -83 16 -108 -10
-5 -63 -13 -118 -16 -133 -8 -184 -15 -184 -25 0 -9 49 -16 170 -25 112 -8
148 -15 160 -30 18 -22 -6 -28 -73 -16 -34 5 -112 12 -174 15 -123 5 -166 19
-171 54 -8 56 34 72 208 79 216 9 190 27 -54 38 -65 3 -123 8 -127 11 -10 6
-12 118 -2 127 9 10 17 9 31 -5z m784 -240 c22 -14 28 -28 34 -74 10 -82 0
-412 -14 -426 -8 -8 -12 -1 -16 23 -6 39 -15 116 -15 140 -1 13 -20 17 -108
22 -123 8 -153 14 -153 32 0 9 22 15 68 20 147 13 171 17 182 30 16 19 -14 45
-53 46 -18 0 -45 3 -62 5 -16 2 -49 6 -72 10 -24 3 -45 9 -48 14 -6 10 27 17
130 25 89 8 115 17 115 43 0 43 -22 54 -126 62 -101 8 -134 16 -134 30 0 16
26 19 135 17 85 -1 117 -6 137 -19z m-765 -114 c12 -12 30 -15 72 -11 31 2 65
7 76 11 30 10 53 -33 37 -69 -7 -14 -12 -57 -12 -95 l0 -70 -110 0 -110 0 0
66 c0 37 -5 84 -12 105 -10 34 -9 42 7 59 22 24 32 25 52 4z m344 -10 c39 -35
9 -94 -48 -94 -32 0 -42 -25 -54 -142 -11 -110 -22 -148 -40 -148 -9 0 -10 29
-5 109 10 169 26 208 86 217 22 4 40 10 40 14 0 7 -45 30 -60 30 -24 0 -61 21
-54 31 10 17 112 4 135 -17z m-1 -140 c12 -32 13 -141 1 -148 -13 -8 -21 19
-22 72 0 38 -2 43 -9 25 -5 -13 -12 -45 -16 -72 -6 -47 -5 -52 26 -79 18 -17
30 -34 27 -39 -8 -13 -64 -4 -77 12 -12 14 -15 179 -4 210 18 51 58 62 74 19z
m-174 -116 c4 -6 -4 -20 -19 -33 -34 -26 -34 -39 -1 -54 20 -9 24 -14 15 -25
-14 -17 -45 -26 -59 -17 -5 3 -17 23 -25 44 -17 39 -37 50 -37 19 0 -34 -29
-62 -66 -62 -42 0 -43 13 -4 42 17 12 30 24 30 28 0 3 -13 11 -30 17 -35 13
-40 40 -7 46 51 10 196 7 203 -5z m534 -133 c0 -8 -4 -15 -10 -15 -5 0 -10 7
-10 15 0 8 5 15 10 15 6 0 10 -7 10 -15z"/>
<path d="M10360 1450 c-10 -6 -15 -26 -15 -60 0 -55 15 -74 50 -64 32 9 55 43
55 80 0 28 -5 36 -26 44 -31 12 -45 12 -64 0z"/>
<path d="M9976 1411 c-8 -12 29 -21 89 -21 65 0 102 10 83 21 -17 12 -165 11
-172 0z"/>
<path d="M9938 993 c12 -2 30 -2 40 0 9 3 -1 5 -23 4 -22 0 -30 -2 -17 -4z"/>
<path d="M9923 953 c-30 -6 -29 -19 2 -27 44 -11 117 13 75 25 -28 8 -45 8
-77 2z"/>
<path d="M2282 1200 c0 -14 2 -19 5 -12 2 6 2 18 0 25 -3 6 -5 1 -5 -13z"/>
<path d="M1893 865 c0 -8 4 -15 9 -15 4 0 8 7 8 15 0 8 -4 15 -8 15 -5 0 -9
-7 -9 -15z"/>
</g>
</svg>
